<svg width="72" height="72" viewBox="0 0 72 72" fill="none" xmlns="http://www.w3.org/2000/svg">
<path fill-rule="evenodd" clip-rule="evenodd" d="M13.8953 44.1099H7.45354V39.3815H13.8953C15.6312 39.3815 16.8038 40.4375 16.8038 41.7457C16.8038 43.0521 15.6312 44.1099 13.8953 44.1099ZM18.3315 37.537C19.8604 36.9032 21.1261 35.4783 21.1261 33.1123C21.1261 29.589 18.1046 27.4517 14.4601 27.4517H3.19944C3.08914 27.4517 2.99963 27.5421 2.99963 27.6506V30.8556C2.99963 30.9632 3.08914 31.0554 3.19944 31.0554H13.6781C15.3697 31.0554 16.5134 32.087 16.5134 33.3582C16.5134 34.633 15.3697 35.6637 13.6781 35.6637H7.45328V33.2877C7.45328 33.1774 7.36287 33.0897 7.25257 33.0897H3.19944C3.08914 33.0897 2.99963 33.1774 2.99963 33.2877V47.4216C2.99963 47.5328 3.08914 47.6242 3.19944 47.6242H14.2956C18.4436 47.6242 21.4154 45.6885 21.4154 41.7456C21.4154 39.8063 20.2717 38.2015 18.3315 37.537ZM64.8841 31.0548H66.5811C66.6887 31.0548 66.7782 30.9626 66.7782 30.855V27.65C66.7782 27.5415 66.6887 27.452 66.5811 27.452H64.1952C61.4385 27.452 59.9784 28.3316 59.143 30.2059L53.9588 42.9032C53.646 43.6626 53.1922 44.0216 52.2989 44.0216V27.65C52.2989 27.5415 52.2085 27.452 52.0982 27.452H48.2901C48.1789 27.452 48.0894 27.5415 48.0894 27.65V47.2709C48.0894 47.4635 48.2476 47.6235 48.4438 47.6235H52.7157C55.4723 47.6235 56.729 46.7429 57.5644 44.8714L62.6799 32.3332C63.0903 31.4418 63.6834 31.0548 64.8841 31.0548ZM62.2934 39.0396L68.8265 47.39C68.906 47.4948 68.8473 47.6241 68.7144 47.6241H64.1142C63.7725 47.6241 63.5428 47.522 63.343 47.2543L60.487 43.4263C60.4698 43.4037 60.4698 43.3739 60.4806 43.3486L62.2382 39.0486C62.2491 39.0188 62.2762 39.0134 62.2934 39.0396ZM28.566 33.0896H24.7552C24.6421 33.0896 24.5544 33.1782 24.5544 33.2885V47.4224C24.5544 47.5336 24.6421 47.6241 24.7552 47.6241H28.566C28.6772 47.6241 28.7685 47.5336 28.7685 47.4224V33.2885C28.7685 33.1782 28.6772 33.0896 28.566 33.0896ZM40.4413 27.4517H44.2512C44.3606 27.4517 44.4519 27.5421 44.4519 27.6506V47.2707C44.4519 47.4641 44.2919 47.6242 44.0975 47.6242H39.8256C37.068 47.6242 35.8104 46.7427 34.9759 44.8721L29.8614 32.333C29.45 31.4415 28.8605 31.0546 27.6572 31.0546H24.755C24.6419 31.0546 24.5533 30.9632 24.5533 30.8556V27.6506C24.5533 27.5421 24.6419 27.4517 24.755 27.4517H28.3425C31.0991 27.4517 32.5629 28.3323 33.3964 30.2056L38.5797 42.9038C38.8934 43.6633 39.3455 44.0213 40.2405 44.0213V27.6506C40.2405 27.5421 40.3301 27.4517 40.4413 27.4517Z" fill="#D61920"/>
</svg>
