<svg width="72" height="72" viewBox="0 0 72 72" fill="none" xmlns="http://www.w3.org/2000/svg">
<path fill-rule="evenodd" clip-rule="evenodd" d="M2.99976 68.9732H68.9758V2.99902H2.99976V68.9732Z" fill="#0090D0"/>
<path fill-rule="evenodd" clip-rule="evenodd" d="M2.99976 2.99945L19.489 19.5002L35.9859 2.99945H2.99976Z" fill="#0090D0"/>
<path fill-rule="evenodd" clip-rule="evenodd" d="M2.99976 2.99945V35.9855L19.489 19.5002L2.99976 2.99945Z" fill="#0099D7"/>
<path fill-rule="evenodd" clip-rule="evenodd" d="M3.00146 35.9845H35.9856L19.5003 19.4895L3.00146 35.9845Z" fill="#0090D0"/>
<path fill-rule="evenodd" clip-rule="evenodd" d="M35.9863 2.99945L19.499 19.4886L35.9863 35.9855V2.99945Z" fill="#0082C8"/>
<path fill-rule="evenodd" clip-rule="evenodd" d="M35.9868 2.99945V35.9855L52.476 19.5002L35.9868 2.99945Z" fill="#0070BA"/>
<path fill-rule="evenodd" clip-rule="evenodd" d="M35.9878 35.9845H68.9739L52.4866 19.4895L35.9878 35.9845Z" fill="#004C97"/>
<path fill-rule="evenodd" clip-rule="evenodd" d="M2.99976 35.9847L19.489 52.4854L35.9859 35.9847H2.99976Z" fill="#0082C8"/>
<path fill-rule="evenodd" clip-rule="evenodd" d="M2.99976 68.9731L19.489 52.4839L2.99976 35.9851V68.9731Z" fill="#0070BA"/>
<path fill-rule="evenodd" clip-rule="evenodd" d="M3.00146 68.973H35.9856L19.5003 52.4723L3.00146 68.973Z" fill="#0066B2"/>
<path fill-rule="evenodd" clip-rule="evenodd" d="M19.5007 52.4726L35.988 68.9734V35.9873L19.5007 52.4726Z" fill="#00519B"/>
<path fill-rule="evenodd" clip-rule="evenodd" d="M35.9868 35.9847L52.476 52.4854L68.9729 35.9847H35.9868Z" fill="#1B3281"/>
<path fill-rule="evenodd" clip-rule="evenodd" d="M35.9868 68.9731L52.476 52.4839L35.9868 35.9851V68.9731Z" fill="#004C97"/>
<path fill-rule="evenodd" clip-rule="evenodd" d="M35.9878 68.973H68.9739L52.4866 52.4723L35.9878 68.973Z" fill="#1B3281"/>
<path fill-rule="evenodd" clip-rule="evenodd" d="M52.4871 52.4726L68.9763 68.9734V35.9873L52.4871 52.4726Z" fill="#1B3281"/>
<path fill-rule="evenodd" clip-rule="evenodd" d="M35.9868 2.99945L52.476 19.5002L68.9729 2.99945H35.9868Z" fill="#0066B2"/>
<path fill-rule="evenodd" clip-rule="evenodd" d="M68.9753 2.99945L52.4861 19.4886L68.9753 35.9855V2.99945Z" fill="#00519B"/>
<path fill-rule="evenodd" clip-rule="evenodd" d="M15.7966 56.2561L27.4923 67.9498L47.8518 47.8949L68.9745 68.902V44.2405L47.8518 24.12L15.7966 56.2561Z" fill="#FEFEFE"/>
</svg>
