<svg width="72" height="72" viewBox="0 0 72 72" fill="none" xmlns="http://www.w3.org/2000/svg">
<path fill-rule="evenodd" clip-rule="evenodd" d="M61.2246 42.4963C63.5473 42.6494 62.8099 41.5774 62.2427 40.8202C58.8963 36.2742 64.5795 33.8296 68.9327 33.2398C68.6378 56.4491 45.0711 59.648 36.1918 59.3417C24.8396 60.0989 4.60798 52.198 3 36.8698C8.24648 42.3431 17.1145 43.4038 21.6321 41.8865C21.7668 41.83 21.9351 41.7839 22.1095 41.736C22.8895 41.522 23.7925 41.2743 22.3695 39.9184C16.8224 32.4797 33.8607 31.1128 41.4156 31.7225C43.7553 31.87 43.0293 30.8094 42.4451 30.0578C39.2387 25.5912 45.1545 24.0751 48.0636 23.3295C48.7156 23.1624 49.2166 23.034 49.43 22.9198C50.4537 22.6248 52.6403 21.4111 49.8752 20.4922C44.1977 18.975 34.0195 16.9898 26.1498 20.7928C20.7643 23.8386 21.6321 27.7777 25.8548 29.5956C15.3845 26.8646 7.81542 27.9252 3.1503 32.3379C7.23122 16.5446 25.5656 11.8398 35.7494 12.0043C47.5412 11.8398 61.8032 16.4085 68.496 30.8094C61.6557 28.8384 54.0951 28.9915 46.957 31.2659C40.406 34.7485 41.8609 37.4795 45.5079 40.375C39.093 39.3143 30.0577 38.5571 24.5418 42.034C19.9271 45.3434 21.1649 46.8906 22.0964 48.0548C22.193 48.1756 22.2863 48.2923 22.3695 48.4063C27.0204 52.6659 33.8607 52.9637 41.4156 52.8134C43.3214 52.3653 43.6135 51.9087 42.014 50.539C37.3489 43.2478 53.6498 41.8865 61.2246 42.4963ZM30.2196 25.1942C31.0874 24.8965 31.3824 23.8387 31.0874 23.0701C30.8038 22.3214 29.9275 21.8535 29.0541 22.1683C28.3309 22.6249 27.8942 23.5437 28.3309 24.2952C28.6117 25.0383 29.4993 25.5119 30.2196 25.1942ZM10.1433 34.7484C11.0111 34.2975 11.3032 33.3871 11.0111 32.6356C10.7417 31.8699 9.83417 31.4133 8.96637 31.7224C8.24604 32.0259 7.81498 32.9419 8.24604 33.8295C8.54382 34.6038 9.41161 35.0547 10.1433 34.7484ZM47.9805 34.7484C48.2641 35.6758 48.9901 36.2742 50.0196 36.121C50.8845 35.9736 51.4716 35.0547 51.3156 34.1415C51.1823 33.2397 50.306 32.6357 49.2879 32.7831C48.5676 32.9419 47.8189 33.8296 47.9805 34.7484ZM27.8943 44.6231C27.5994 43.8603 28.0446 42.7883 28.7791 42.4962C29.6413 42.1899 30.3673 42.4962 30.804 43.4037C31.0876 44.1637 30.804 45.0712 29.9277 45.5278C29.213 45.8341 28.3311 45.3718 27.8943 44.6231Z" fill="#044DA1"/>
</svg>
